{"title":"Futurama.S07E03.Decision.3012.720p.WEB-DL.DD5.1.H.264-CtrlHD [Pu","uid":7396870,"size":624212494,"categoryP":"video","categoryS":"hd___tv_shows","magnet":"?xt=urn:btih:e991f0a5447830a47c7ef5e69ab747a5975743f1&amp;dn=Futurama.S07E03.Decision.3012.720p.WEB-DL.DD5.1.H.264-CtrlHD+%5BPu&amp;tr=udp%3A%2F%2Ftracker.openbittorrent.com%3A80&amp;tr=udp%3A%2F%2Fopen.demonii.com%3A1337&amp;tr=udp%3A%2F%2Ftracker.coppersurfer.tk%3A6969&amp;tr=udp%3A%2F%2Fexodus.desync.com%3A6969","seeders":0,"leechers":2,"uploader":"DibyaTPB","files":2,"time":1340942544,"description":"PublicHD - High-Definition Bittorrent Community \n      &lt;a href=&quot;\nhttp://publichd.eu/&quot; rel=&quot;nofollow&quot; target=&quot;_NEW&quot;&gt;\nhttp://publichd.eu/&lt;/a&gt;\n\n-----------------------------------------------------\n\nVideo\nID : 1\nFormat : AVC\nFormat/Info : Advanced Video Codec\nFormat profile : &lt;a class=&quot;__cf_email__&quot; href=&quot;/cdn-cgi/l/email-protection&quot; data-cfemail=&quot;f0b8999798b0bcc3dec1&quot;&gt;[email&amp;#160;protected]&lt;/a&gt;&lt;script cf-hash='f9e31' type=&quot;text/javascript&quot;&gt;\n/* &lt;![CDATA[ */!function(){try{var t=&quot;currentScript&quot;in document?document.currentScript:function(){for(var t=document.getElementsByTagName(&quot;script&quot;),e=t.length;e--;)if(t[e].getAttribute(&quot;cf-hash&quot;))return t[e]}();if(t&amp;&amp;t.previousSibling){var e,r,n,i,c=t.previousSibling,a=c.getAttribute(&quot;data-cfemail&quot;);if(a){for(e=&quot;&quot;,r=parseInt(a.substr(0,2),16),n=2;a.length-n;n+=2)i=parseInt(a.substr(n,2),16)^r,e+=String.fromCharCode(i);e=document.createTextNode(e),c.parentNode.replaceChild(e,c)}}}catch(u){}}();/* ]]&gt; */&lt;/script&gt;\nFormat settings, CABAC : No\nFormat settings, ReFrames : 2 frames\nCodec ID : V_MPEG4/ISO/AVC\nDuration : 21mn 38s\nBit rate : 3 385 Kbps\nWidth : 1 280 pixels\nHeight : 720 pixels\nDisplay aspect ratio : 16:9\nFrame rate : 23.976 fps\nColor space : YUV\nChroma subsampling : 4:2:0\nBit depth : 8 bits\nScan type : Progressive\nBits/(Pixel*Frame) : 0.153\nStream size : 524 MiB (88%)\nLanguage : English\nDefault : Yes\nForced : No\nColor primaries : BT.709-5, BT.1361, IEC 61966-2-4, SMPTE RP177\nTransfer characteristics : BT.709-5, BT.1361\nMatrix coefficients : BT.709-5, BT.1361, IEC 61966-2-4 709, SMPTE RP177\n\nAudio\nID : 2\nFormat : AC-3\nFormat/Info : Audio Coding 3\nMode extension : CM (complete main)\nFormat settings, Endianness : Big\nCodec ID : A_AC3\nDuration : 21mn 38s\nBit rate mode : Constant\nBit rate : 384 Kbps\nChannel(s) : 6 channels\nChannel positions : Front: L C R, Side: L R, LFE\nSampling rate : 48.0 KHz\nBit depth : 16 bits\nCompression mode : Lossy\nStream size : 59.4 MiB (10%)\nLanguage : English\nDefault : Yes\nForced : No","torrent":{"xt":"urn:btih:e991f0a5447830a47c7ef5e69ab747a5975743f1","amp;dn":"Futurama.S07E03.Decision.3012.720p.WEB-DL.DD5.1.H.264-CtrlHD+%5BPu","amp;tr":["udp%3A%2F%2Ftracker.openbittorrent.com%3A80","udp%3A%2F%2Fopen.demonii.com%3A1337","udp%3A%2F%2Ftracker.coppersurfer.tk%3A6969","udp%3A%2F%2Fexodus.desync.com%3A6969"],"infoHash":"e991f0a5447830a47c7ef5e69ab747a5975743f1","infoHashBuffer":{"type":"Buffer","data":[233,145,240,165,68,120,48,164,124,126,245,230,154,183,71,165,151,87,67,241]},"announce":[],"urlList":[]}}